<svg width="80" height="106" viewBox="0 0 80 106" fill="none" xmlns="http://www.w3.org/2000/svg">
<path d="M33.9008 60.6934H25.5663C23.9264 60.6934 22.5921 62.1515 22.5921 63.9439V67.0046C22.5921 67.1784 22.729 67.3252 22.8913 67.3252H36.5756C36.7377 67.3252 36.8748 67.1784 36.8748 67.0046V63.9439C36.8746 62.1515 35.5405 60.6934 33.9008 60.6934Z" fill="#080904"/>
<path d="M47.2251 71.4801C46.7816 72.1239 46.3056 72.7459 45.7982 73.3442C45.7719 73.3756 45.7454 73.4068 45.7187 73.438C45.5573 73.6261 45.394 73.8127 45.2267 73.9963C45.0634 74.1751 44.8972 74.3491 44.7296 74.5217C44.6926 74.5596 44.6556 74.5974 44.6185 74.6346C44.4569 74.7986 44.2934 74.9603 44.1279 75.1185C44.1224 75.1237 44.1169 75.129 44.1116 75.1343C43.7298 75.498 43.3377 75.8455 42.9367 76.177L45.9228 79.4454L50.2124 74.7495L47.2251 71.4801Z" fill="#080904"/>
<path d="M46.1912 69.0095C46.1937 69.0055 46.1962 69.0022 46.1987 68.9984C48.2889 65.5462 49.4124 61.5002 49.4121 57.2643C49.4119 51.5757 47.3881 46.228 43.7137 42.2056C40.0376 38.181 35.1497 35.9645 29.9509 35.9645C24.7518 35.9645 19.8642 38.181 16.1883 42.2056C12.5144 46.228 10.4913 51.5757 10.491 57.2643C10.4908 62.9533 12.5142 68.3023 16.1883 72.3257C19.8642 76.3501 24.7518 78.566 29.9509 78.566C33.8207 78.566 37.5172 77.3362 40.6709 75.0491C40.6757 75.0453 40.68 75.0411 40.6853 75.0373C41.7699 74.2509 42.7887 73.3387 43.7137 72.3257C44.6381 71.3129 45.4717 70.1968 46.1912 69.0095ZM29.752 42.02C32.5982 42.02 34.9138 44.5656 34.9138 47.6942C34.9138 50.8225 32.5982 53.3679 29.752 53.3679C26.9069 53.3679 24.592 50.8225 24.592 47.6942C24.592 44.5654 26.9067 42.02 29.752 42.02ZM39.0175 67.0046C39.0175 68.4809 37.9221 69.682 36.5757 69.682H22.8915C21.5451 69.682 20.4497 68.4809 20.4497 67.0046V63.9439C20.4497 60.8521 22.7452 58.3366 25.5665 58.3366H33.9009C36.722 58.3366 39.0172 60.8521 39.0172 63.9439V67.0046H39.0175Z" fill="#080904"/>
<path d="M69.8354 1.6571V11.1301H78.4879L69.8354 1.6571Z" fill="#080904"/>
<path d="M29.753 51.011C31.4177 51.011 32.7723 49.5231 32.7723 47.694C32.7723 45.8649 31.4179 44.3768 29.753 44.3768C28.0893 44.3768 26.7355 45.8649 26.7355 47.694C26.7355 49.5231 28.089 51.011 29.753 51.011Z" fill="#080904"/>
<path d="M68.7637 13.4868C68.172 13.4868 67.6924 12.9594 67.6924 12.3083V0H0L0.014176 105.543H80V13.4868H68.7637ZM9.20282 15.9887H49.4497C50.0414 15.9887 50.5211 16.5161 50.5211 17.1672C50.5211 17.818 50.0414 18.3454 49.4497 18.3454H9.20282C8.61136 18.3454 8.13146 17.818 8.13146 17.1672C8.13169 16.5161 8.61136 15.9887 9.20282 15.9887ZM9.20282 24.6174H66.6981C67.29 24.6174 67.7694 25.1451 67.7694 25.7959C67.7694 26.4468 67.29 26.9744 66.6981 26.9744H9.20282C8.61136 26.9744 8.13146 26.4468 8.13146 25.7959C8.13146 25.1451 8.61136 24.6174 9.20282 24.6174ZM69.9069 91.4802L61.1965 101.017C60.9873 101.246 60.7144 101.36 60.4405 101.36C60.1672 101.36 59.8938 101.246 59.6848 101.017L43.7146 83.5327C43.5127 83.3117 43.3993 83.0111 43.3993 82.6978C43.3993 82.3842 43.5127 82.0839 43.7148 81.8626L44.4041 81.1081L41.1274 77.5215C37.7903 79.7382 33.9543 80.923 29.9519 80.923C24.1824 80.923 18.7582 78.4631 14.6778 73.9964C10.5966 69.5271 8.34912 63.585 8.34935 57.2645C8.34958 50.9447 10.5972 45.0032 14.6778 40.5354C18.7582 36.0682 24.1824 33.6081 29.9519 33.6081C35.7212 33.6081 41.1457 36.0682 45.2263 40.5354C49.3078 45.0032 51.5557 50.9445 51.5559 57.2645C51.5561 61.646 50.4747 65.8457 48.4522 69.4987L51.731 73.0877L52.427 72.3259C52.8451 71.8685 53.5205 71.8687 53.9384 72.3259L69.9069 89.81C70.109 90.0311 70.2226 90.3316 70.2226 90.645C70.2224 90.9586 70.1088 91.2591 69.9069 91.4802Z" fill="#080904"/>
<path d="M45.9878 82.6976L60.439 98.5193L67.631 90.6448L53.1809 74.8236L45.9878 82.6976ZM60.5314 88.7425C61.6624 88.7425 62.5797 89.7465 62.5797 90.9848C62.5797 92.2244 61.6624 93.2279 60.5314 93.2279C59.4004 93.2279 58.4829 92.2244 58.4829 90.9848C58.4829 89.7465 59.4001 88.7425 60.5314 88.7425Z" fill="#080904"/>
</svg>
