<svg width="27" height="35" viewBox="0 0 27 35" fill="none" xmlns="http://www.w3.org/2000/svg">
<path d="M11.0946 20.3552H8.36695C7.83023 20.3552 7.39355 20.8218 7.39355 21.3954V22.3748C7.39355 22.4304 7.43837 22.4774 7.4915 22.4774H11.97C12.023 22.4774 12.0679 22.4304 12.0679 22.3748V21.3954C12.0678 20.8218 11.6312 20.3552 11.0946 20.3552Z" fill="#080904"/>
<path d="M15.4552 23.807C15.3101 24.013 15.1543 24.212 14.9883 24.4035C14.9797 24.4136 14.971 24.4235 14.9622 24.4335C14.9094 24.4937 14.856 24.5534 14.8012 24.6122C14.7478 24.6694 14.6934 24.7251 14.6385 24.7803C14.6264 24.7924 14.6143 24.8045 14.6022 24.8164C14.5493 24.8689 14.4958 24.9206 14.4416 24.9713C14.4398 24.973 14.438 24.9746 14.4363 24.9763C14.3113 25.0927 14.183 25.2039 14.0518 25.31L15.029 26.3559L16.4329 24.8532L15.4552 23.807Z" fill="#080904"/>
<path d="M15.1173 23.0164C15.1181 23.0151 15.1189 23.014 15.1198 23.0128C15.8038 21.9081 16.1715 20.6134 16.1714 19.2579C16.1713 17.4376 15.509 15.7263 14.3065 14.4391C13.1034 13.1512 11.5037 12.442 9.80228 12.442C8.10077 12.442 6.50117 13.1512 5.29814 14.4391C4.09579 15.7263 3.43367 17.4376 3.43359 19.2579C3.43352 21.0784 4.09572 22.7901 5.29814 24.0776C6.50117 25.3654 8.10077 26.0745 9.80228 26.0745C11.0688 26.0745 12.2785 25.6809 13.3106 24.949C13.3122 24.9478 13.3136 24.9465 13.3154 24.9453C13.6703 24.6936 14.0037 24.4017 14.3065 24.0776C14.609 23.7535 14.8818 23.3963 15.1173 23.0164ZM9.73718 14.3797C10.6687 14.3797 11.4265 15.1943 11.4265 16.1955C11.4265 17.1965 10.6687 18.0111 9.73718 18.0111C8.80606 18.0111 8.04847 17.1965 8.04847 16.1955C8.04847 15.1942 8.80599 14.3797 9.73718 14.3797ZM12.7695 22.3748C12.7695 22.8472 12.411 23.2316 11.9704 23.2316H7.49192C7.05128 23.2316 6.6928 22.8472 6.6928 22.3748V21.3954C6.6928 20.406 7.44403 19.6011 8.36737 19.6011H11.095C12.0183 19.6011 12.7694 20.406 12.7694 21.3954V22.3748H12.7695Z" fill="#080904"/>
<path d="M22.855 1.46361V4.49497H25.6867L22.855 1.46361Z" fill="#080904"/>
<path d="M9.73753 17.2568C10.2823 17.2568 10.7257 16.7807 10.7257 16.1954C10.7257 15.6101 10.2824 15.1339 9.73753 15.1339C9.19304 15.1339 8.75 15.6101 8.75 16.1954C8.75 16.7807 9.19296 17.2568 9.73753 17.2568Z" fill="#080904"/>
<path d="M22.5045 5.24912C22.3109 5.24912 22.1539 5.08036 22.1539 4.872V0.933334H0L0.00463942 34.707H26.1818V5.24912H22.5045ZM3.01183 6.04971H16.1836C16.3772 6.04971 16.5342 6.21848 16.5342 6.42683C16.5342 6.63511 16.3772 6.80387 16.1836 6.80387H3.01183C2.81826 6.80387 2.66121 6.63511 2.66121 6.42683C2.66128 6.21848 2.81826 6.04971 3.01183 6.04971ZM3.01183 8.81091H21.8285C22.0222 8.81091 22.1791 8.97975 22.1791 9.18803C22.1791 9.39631 22.0222 9.56515 21.8285 9.56515H3.01183C2.81826 9.56515 2.66121 9.39631 2.66121 9.18803C2.66121 8.97975 2.81826 8.81091 3.01183 8.81091ZM22.8786 30.207L20.028 33.2589C19.9595 33.332 19.8702 33.3686 19.7805 33.3686C19.6911 33.3686 19.6016 33.332 19.5332 33.2589L14.3066 27.6638C14.2405 27.5931 14.2034 27.4969 14.2034 27.3966C14.2034 27.2963 14.2405 27.2002 14.3067 27.1294L14.5323 26.8879L13.4599 25.7402C12.3677 26.4496 11.1123 26.8287 9.80245 26.8287C7.91426 26.8287 6.13905 26.0415 4.80365 24.6122C3.46796 23.182 2.73244 21.2806 2.73251 19.258C2.73259 17.2357 3.46819 15.3344 4.80365 13.9047C6.13905 12.4751 7.91426 11.6879 9.80245 11.6879C11.6906 11.6879 13.4659 12.4751 14.8013 13.9047C16.1371 15.3344 16.8728 17.2356 16.8728 19.258C16.8729 20.6601 16.519 22.004 15.8571 23.1729L16.9302 24.3214L17.1579 24.0776C17.2948 23.9312 17.5158 23.9313 17.6526 24.0776L22.8786 29.6725C22.9448 29.7433 22.982 29.8395 22.982 29.9397C22.9819 30.0401 22.9447 30.1363 22.8786 30.207Z" fill="#080904"/>
<path d="M15.0503 27.3965L19.7798 32.4595L22.1335 29.9396L17.4044 24.8769L15.0503 27.3965ZM19.81 29.3309C20.1802 29.3309 20.4804 29.6522 20.4804 30.0485C20.4804 30.4451 20.1802 30.7662 19.81 30.7662C19.4399 30.7662 19.1396 30.4451 19.1396 30.0485C19.1396 29.6522 19.4398 29.3309 19.81 29.3309Z" fill="#080904"/>
</svg>
