<svg width="60" height="69" viewBox="0 0 60 69" fill="none" xmlns="http://www.w3.org/2000/svg">
<g clip-path="url(#clip0_232_394)">
<path d="M53.5714 4.28571H6.42857C2.87946 4.28571 0 7.16517 0 10.7143V57.8571C0 61.4062 2.87946 64.2857 6.42857 64.2857H53.5714C57.1205 64.2857 60 61.4062 60 57.8571V10.7143C60 7.16517 57.1205 4.28571 53.5714 4.28571ZM37.1384 55.6741C36.0134 55.875 35.5982 55.1786 35.5982 54.6027C35.5982 53.8795 35.625 50.183 35.625 47.1964C35.625 45.1071 34.9286 43.7812 34.1116 43.0848C39.067 42.5357 44.2902 41.8527 44.2902 33.2946C44.2902 30.8571 43.4196 29.6384 42 28.0714C42.2277 27.4955 42.9911 25.125 41.7723 22.0446C39.9107 21.4687 35.6518 24.442 35.6518 24.442C33.8839 23.9464 31.9687 23.692 30.0804 23.692C28.192 23.692 26.2768 23.9464 24.5089 24.442C24.5089 24.442 20.25 21.4687 18.3884 22.0446C17.1696 25.1116 17.9196 27.4821 18.1607 28.0714C16.7411 29.6384 16.0714 30.8571 16.0714 33.2946C16.0714 41.8125 21.067 42.5357 26.0223 43.0848C25.3795 43.6607 24.8036 44.6518 24.6027 46.0714C23.3304 46.6473 20.0759 47.6384 18.1339 44.2098C16.9152 42.0937 14.7187 41.9196 14.7187 41.9196C12.5491 41.8928 14.5714 43.2857 14.5714 43.2857C16.0179 43.9553 17.0357 46.5268 17.0357 46.5268C18.3348 50.5045 24.5491 49.1652 24.5491 49.1652C24.5491 51.0268 24.5759 54.0536 24.5759 54.6027C24.5759 55.1786 24.1741 55.875 23.0357 55.6741C14.1964 52.7143 8.00893 44.3036 8.00893 34.4732C8.00893 22.1786 17.4107 12.8437 29.7054 12.8437C42 12.8437 51.9643 22.1786 51.9643 34.4732C51.9777 44.3036 45.9777 52.7277 37.1384 55.6741ZM24 47.4911C23.7455 47.5446 23.5045 47.4375 23.4777 47.2634C23.4509 47.0625 23.625 46.8884 23.8795 46.8348C24.1339 46.808 24.375 46.9152 24.4018 47.0893C24.442 47.2634 24.2679 47.4375 24 47.4911ZM22.7277 47.3705C22.7277 47.5446 22.5268 47.692 22.2589 47.692C21.9643 47.7187 21.7634 47.5714 21.7634 47.3705C21.7634 47.1964 21.9643 47.0491 22.2321 47.0491C22.4866 47.0223 22.7277 47.1696 22.7277 47.3705ZM20.8929 47.2232C20.8393 47.3973 20.5714 47.4777 20.3437 47.3973C20.0893 47.3437 19.9152 47.1428 19.9688 46.9687C20.0223 46.7946 20.2902 46.7143 20.5179 46.7678C20.7857 46.8482 20.9598 47.0491 20.8929 47.2232ZM19.2455 46.5C19.125 46.6473 18.8705 46.6205 18.6696 46.4196C18.4687 46.2455 18.4152 45.9911 18.5491 45.8705C18.6696 45.7232 18.9241 45.75 19.125 45.9509C19.2991 46.125 19.3661 46.3928 19.2455 46.5ZM18.0268 45.2812C17.9063 45.3616 17.6786 45.2812 17.5312 45.0803C17.3839 44.8795 17.3839 44.6518 17.5312 44.558C17.6786 44.4375 17.9063 44.5312 18.0268 44.7321C18.1741 44.933 18.1741 45.1741 18.0268 45.2812V45.2812ZM17.1563 43.9821C17.0357 44.1027 16.8348 44.0357 16.6875 43.9018C16.5402 43.7277 16.5134 43.5268 16.6339 43.433C16.7545 43.3125 16.9554 43.3795 17.1027 43.5134C17.25 43.6875 17.2768 43.8884 17.1563 43.9821ZM16.2589 42.9911C16.2054 43.1116 16.0312 43.1384 15.8839 43.0446C15.7098 42.9643 15.6295 42.817 15.683 42.6964C15.7366 42.6161 15.8839 42.5759 16.058 42.6428C16.2321 42.7366 16.3125 42.8839 16.2589 42.9911Z" fill="#F9FAFC"/>
</g>
<defs>
<clipPath id="clip0_232_394">
<rect width="60" height="68.5714" fill="white"/>
</clipPath>
</defs>
</svg>
