<svg width="36" height="36" viewBox="0 0 36 36" fill="none" xmlns="http://www.w3.org/2000/svg">
<path d="M26.7868 15.7915H21.9736C22.0147 15.5259 22.0354 15.2576 22.0354 14.9888V9.84349C22.0338 8.45962 21.4834 7.13287 20.5048 6.15433C19.5263 5.17578 18.1996 4.62534 16.8157 4.62378H9.21287C7.829 4.62535 6.50225 5.17578 5.52371 6.15433C4.54516 7.13288 3.99473 8.45962 3.99316 9.84349V14.9888C3.99473 16.3727 4.54517 17.6994 5.52371 18.678C6.50226 19.6565 7.829 20.207 9.21287 20.2085H14.0273C13.9856 20.474 13.9645 20.7424 13.9643 21.0111V26.1565C13.9659 27.5404 14.5163 28.8671 15.4949 29.8456C16.4734 30.8242 17.8001 31.3746 19.184 31.3762H26.7869C28.1708 31.3746 29.4975 30.8242 30.476 29.8456C31.4546 28.8671 32.005 27.5404 32.0066 26.1565V21.0111C32.005 19.6273 31.4546 18.3005 30.476 17.322C29.4975 16.3434 28.1707 15.793 26.7868 15.7915ZM5.11813 14.9888V9.84349C5.11936 8.75788 5.55116 7.71708 6.31881 6.94944C7.08646 6.1818 8.12726 5.75 9.21287 5.74878H16.8157C17.9013 5.75 18.9421 6.1818 19.7097 6.94944C20.4774 7.71709 20.9092 8.75788 20.9104 9.84349V14.9888C20.9092 16.0744 20.4774 17.1152 19.7097 17.8829C18.9421 18.6505 17.9013 19.0823 16.8157 19.0835H9.21287C8.12726 19.0823 7.08646 18.6505 6.31881 17.8829C5.55116 17.1152 5.11936 16.0744 5.11813 14.9888V14.9888ZM27.2087 22.2756H25.8376C25.4635 23.6115 24.7676 24.8352 23.811 25.8399C24.2906 26.2232 24.8091 26.555 25.358 26.8299L26.1233 27.2141C26.1893 27.2473 26.2482 27.2931 26.2965 27.349C26.3448 27.4049 26.3816 27.4697 26.4048 27.5398C26.4281 27.6099 26.4373 27.684 26.4319 27.7576C26.4266 27.8313 26.4067 27.9032 26.3736 27.9692C26.3404 28.0352 26.2946 28.0941 26.2387 28.1424C26.1828 28.1907 26.118 28.2275 26.0479 28.2507C25.9777 28.274 25.9037 28.2832 25.8301 28.2778C25.7564 28.2725 25.6845 28.2526 25.6185 28.2195L24.8532 27.8352C24.1857 27.5017 23.5582 27.0934 22.9829 26.6183C22.4094 27.0935 21.7835 27.5018 21.1176 27.8352L20.3524 28.2195C20.219 28.2864 20.0646 28.2977 19.923 28.2507C19.7814 28.2038 19.6642 28.1025 19.5972 27.9692C19.5303 27.8359 19.5191 27.6814 19.566 27.5398C19.6129 27.3982 19.7142 27.281 19.8475 27.2141L20.6127 26.8298C21.1604 26.5554 21.6775 26.224 22.1556 25.841C21.5891 25.2403 21.1108 24.5622 20.7351 23.827C20.7016 23.7611 20.6814 23.6894 20.6756 23.6157C20.6698 23.5421 20.6785 23.468 20.7013 23.3978C20.7242 23.3275 20.7606 23.2624 20.8086 23.2063C20.8565 23.1501 20.9151 23.1039 20.9809 23.0704C21.0467 23.0368 21.1185 23.0166 21.1922 23.0108C21.2658 23.005 21.3399 23.0138 21.4101 23.0366C21.4804 23.0594 21.5454 23.0958 21.6016 23.1438C21.6578 23.1918 21.704 23.2503 21.7375 23.3162C22.0667 23.9599 22.4861 24.5532 22.983 25.0783C23.7445 24.2807 24.3185 23.3232 24.6631 22.2756H18.7621C18.6129 22.2756 18.4698 22.2164 18.3643 22.1109C18.2588 22.0054 18.1996 21.8623 18.1996 21.7131C18.1996 21.5639 18.2588 21.4209 18.3643 21.3154C18.4698 21.2099 18.6129 21.1506 18.7621 21.1506H22.4229V19.4509C22.4229 19.3017 22.4822 19.1586 22.5877 19.0531C22.6932 18.9476 22.8363 18.8884 22.9854 18.8884C23.1346 18.8884 23.2777 18.9476 23.3832 19.0531C23.4887 19.1586 23.5479 19.3017 23.5479 19.4509V21.1506H27.2087C27.3579 21.1506 27.501 21.2099 27.6065 21.3154C27.712 21.4209 27.7712 21.5639 27.7712 21.7131C27.7712 21.8623 27.712 22.0054 27.6065 22.1109C27.501 22.2164 27.3579 22.2756 27.2087 22.2756Z" fill="black"/>
<path d="M14.0206 9.39434C13.8369 8.94002 13.4513 8.65778 13.0142 8.65778C12.5771 8.65778 12.1915 8.94002 12.0078 9.39438L9.57957 15.4013C9.55189 15.4698 9.53796 15.543 9.53859 15.6169C9.53923 15.6908 9.5544 15.7638 9.58326 15.8318C9.61211 15.8998 9.65407 15.9614 9.70675 16.0132C9.75943 16.065 9.82179 16.1059 9.89028 16.1336C9.95876 16.1613 10.032 16.1752 10.1059 16.1746C10.1798 16.1739 10.2528 16.1588 10.3208 16.1299C10.3888 16.1011 10.4504 16.0591 10.5022 16.0064C10.554 15.9537 10.5949 15.8914 10.6226 15.8229L11.5329 13.5709H14.4954L15.4058 15.8229C15.4333 15.8916 15.4741 15.9542 15.5259 16.0071C15.5777 16.0599 15.6394 16.1021 15.7075 16.1311C15.7755 16.1601 15.8487 16.1754 15.9227 16.1761C15.9967 16.1768 16.0701 16.1629 16.1387 16.1351C16.2073 16.1074 16.2698 16.0664 16.3225 16.0145C16.3753 15.9625 16.4173 15.9007 16.4461 15.8326C16.4749 15.7644 16.4899 15.6912 16.4904 15.6172C16.4909 15.5432 16.4767 15.4698 16.4488 15.4013L14.0206 9.39434ZM11.9877 12.4459L13.0142 9.90655L14.0407 12.4459H11.9877Z" fill="black"/>
</svg>
