<svg width="80" height="80" viewBox="0 0 80 80" fill="none" xmlns="http://www.w3.org/2000/svg">
<path d="M59.5267 34.8922H48.8305C48.922 34.3021 48.968 33.7058 48.9679 33.1086V21.6745C48.9645 18.5992 47.7413 15.6509 45.5667 13.4763C43.3922 11.3018 40.4438 10.0786 37.3686 10.0751H20.4734C17.3982 10.0786 14.4498 11.3018 12.2753 13.4763C10.1007 15.6509 8.87756 18.5992 8.87408 21.6745V33.1086C8.87757 36.1838 10.1008 39.1321 12.2753 41.3067C14.4498 43.4812 17.3982 44.7044 20.4734 44.7079H31.1722C31.0795 45.2979 31.0326 45.8942 31.0322 46.4914V57.9256C31.0357 61.0009 32.2589 63.9492 34.4334 66.1237C36.6079 68.2982 39.5562 69.5214 42.6315 69.5249H59.5268C62.6021 69.5214 65.5504 68.2982 67.7249 66.1237C69.8994 63.9492 71.1226 61.0009 71.1261 57.9256V46.4914C71.1226 43.4162 69.8994 40.4678 67.7248 38.2933C65.5503 36.1188 62.602 34.8956 59.5267 34.8922ZM11.374 33.1086V21.6745C11.3767 19.262 12.3363 16.9491 14.0422 15.2432C15.7481 13.5374 18.061 12.5778 20.4734 12.5751H37.3686C39.781 12.5778 42.0939 13.5374 43.7998 15.2432C45.5057 16.9491 46.4652 19.262 46.4679 21.6745V33.1086C46.4652 35.521 45.5057 37.8339 43.7998 39.5398C42.0939 41.2456 39.781 42.2052 37.3686 42.2079H20.4734C18.061 42.2052 15.7481 41.2456 14.0422 39.5398C12.3363 37.8339 11.3767 35.521 11.374 33.1086V33.1086ZM60.4642 49.3014H57.4173C56.5859 52.2699 55.0396 54.9894 52.9137 57.2219C53.9794 58.0738 55.1317 58.8112 56.3516 59.4219L58.0522 60.2758C58.1989 60.3495 58.3296 60.4513 58.437 60.5755C58.5443 60.6997 58.6261 60.8438 58.6778 60.9996C58.7294 61.1555 58.7499 61.3199 58.738 61.4837C58.7261 61.6474 58.682 61.8072 58.6083 61.9539C58.5347 62.1006 58.4328 62.2313 58.3086 62.3387C58.1845 62.446 58.0403 62.5278 57.8845 62.5795C57.7287 62.6311 57.5642 62.6516 57.4005 62.6397C57.2368 62.6277 57.077 62.5837 56.9303 62.51L55.2297 61.6561C53.7464 60.915 52.352 60.0077 51.0734 58.9518C49.799 60.0078 48.4083 60.9151 46.9283 61.6561L45.2279 62.51C44.9316 62.6587 44.5883 62.6837 44.2736 62.5794C43.9589 62.4751 43.6986 62.2501 43.5498 61.9538C43.401 61.6575 43.3761 61.3143 43.4804 60.9996C43.5847 60.6849 43.8097 60.4245 44.106 60.2758L45.8064 59.4219C47.0235 58.8121 48.1727 58.0756 49.235 57.2244C47.9762 55.8896 46.9134 54.3827 46.0785 52.7488C46.0039 52.6026 45.9589 52.4431 45.9461 52.2794C45.9332 52.1158 45.9526 51.9512 46.0034 51.7951C46.0541 51.6389 46.135 51.4944 46.2417 51.3695C46.3483 51.2447 46.4784 51.1421 46.6247 51.0675C46.7709 50.993 46.9304 50.948 47.0941 50.9351C47.2577 50.9222 47.4223 50.9417 47.5784 50.9924C47.7345 51.0431 47.8791 51.1241 48.004 51.2307C48.1288 51.3373 48.2314 51.4675 48.3059 51.6137C49.0374 53.0442 49.9694 54.3628 51.0738 55.5297C52.766 53.7571 54.0415 51.6293 54.8073 49.3014H41.6939C41.3624 49.3014 41.0444 49.1697 40.81 48.9353C40.5756 48.7009 40.4439 48.3829 40.4439 48.0514C40.4439 47.7199 40.5756 47.402 40.81 47.1675C41.0444 46.9331 41.3624 46.8014 41.6939 46.8014H49.8291V43.0242C49.8291 42.6927 49.9608 42.3747 50.1952 42.1403C50.4297 41.9059 50.7476 41.7742 51.0791 41.7742C51.4107 41.7742 51.7286 41.9059 51.963 42.1403C52.1974 42.3747 52.3291 42.6927 52.3291 43.0242V46.8014H60.4642C60.7957 46.8014 61.1137 46.9331 61.3481 47.1675C61.5825 47.402 61.7142 47.7199 61.7142 48.0514C61.7142 48.3829 61.5825 48.7009 61.3481 48.9353C61.1137 49.1697 60.7957 49.3014 60.4642 49.3014Z" fill="black"/>
<path d="M31.1574 20.6763C30.7493 19.6667 29.8923 19.0395 28.921 19.0395C27.9497 19.0395 27.0927 19.6667 26.6845 20.6764L21.2885 34.0251C21.227 34.1773 21.196 34.3401 21.1974 34.5042C21.1988 34.6684 21.2326 34.8306 21.2967 34.9817C21.3608 35.1329 21.454 35.2699 21.5711 35.3849C21.6882 35.5 21.8268 35.5909 21.9789 35.6524C22.1311 35.7139 22.294 35.7449 22.4581 35.7435C22.6222 35.7421 22.7845 35.7083 22.9356 35.6442C23.0867 35.5801 23.2237 35.4869 23.3388 35.3698C23.4539 35.2527 23.5448 35.1141 23.6063 34.962L25.6293 29.9575H32.2127L34.2357 34.962C34.2968 35.1146 34.3876 35.2537 34.5026 35.3712C34.6176 35.4888 34.7547 35.5824 34.906 35.6469C35.0573 35.7114 35.2199 35.7453 35.3843 35.7469C35.5488 35.7484 35.7119 35.7174 35.8644 35.6558C36.0168 35.5942 36.1557 35.5031 36.2729 35.3877C36.3901 35.2723 36.4833 35.1349 36.5474 34.9834C36.6114 34.832 36.6449 34.6693 36.6459 34.5049C36.6469 34.3404 36.6155 34.1774 36.5535 34.0251L31.1574 20.6763ZM26.6399 27.4575L28.921 21.8145L31.2021 27.4575H26.6399Z" fill="black"/>
</svg>
