<svg width="60" height="69" viewBox="0 0 60 69" fill="none" xmlns="http://www.w3.org/2000/svg">
<path d="M55.7143 4.28571H4.27232C1.91518 4.28571 0 6.22767 0 8.6116V59.9598C0 62.3437 1.91518 64.2857 4.27232 64.2857H55.7143C58.0714 64.2857 60 62.3437 60 59.9598V8.6116C60 6.22767 58.0714 4.28571 55.7143 4.28571ZM18.1339 55.7143H9.24107V27.0803H18.1473V55.7143H18.1339ZM13.6875 23.1696C10.8348 23.1696 8.53125 20.8527 8.53125 18.0134C8.53125 15.1741 10.8348 12.8571 13.6875 12.8571C16.5268 12.8571 18.8437 15.1741 18.8437 18.0134C18.8437 20.8661 16.5402 23.1696 13.6875 23.1696V23.1696ZM51.4687 55.7143H42.5759V41.7857C42.5759 38.4643 42.5089 34.192 37.9554 34.192C33.3214 34.192 32.6116 37.808 32.6116 41.5446V55.7143H23.7188V27.0803H32.25V30.9911H32.3705C33.5625 28.7411 36.4687 26.3705 40.7946 26.3705C49.7946 26.3705 51.4687 32.3036 51.4687 40.0178V55.7143V55.7143Z" fill="#F9FAFC"/>
</svg>
