<svg width="40" height="46" viewBox="0 0 40 46" fill="none" xmlns="http://www.w3.org/2000/svg">
<path d="M37.1429 2.85718H2.84821C1.27679 2.85718 0 4.15182 0 5.74111V39.9733C0 41.5625 1.27679 42.8572 2.84821 42.8572H37.1429C38.7143 42.8572 40 41.5625 40 39.9733V5.74111C40 4.15182 38.7143 2.85718 37.1429 2.85718ZM12.0893 37.1429H6.16071V18.0536H12.0982V37.1429H12.0893ZM9.125 15.4465C7.22321 15.4465 5.6875 13.9018 5.6875 12.009C5.6875 10.1161 7.22321 8.57146 9.125 8.57146C11.0179 8.57146 12.5625 10.1161 12.5625 12.009C12.5625 13.9107 11.0268 15.4465 9.125 15.4465ZM34.3125 37.1429H28.3839V27.8572C28.3839 25.6429 28.3393 22.7947 25.3036 22.7947C22.2143 22.7947 21.7411 25.2054 21.7411 27.6965V37.1429H15.8125V18.0536H21.5V20.6607H21.5804C22.375 19.1607 24.3125 17.5804 27.1964 17.5804C33.1964 17.5804 34.3125 21.5357 34.3125 26.6786V37.1429Z" fill="#F9FAFC"/>
</svg>
