<svg width="320" height="320" viewBox="0 0 320 320" fill="none" xmlns="http://www.w3.org/2000/svg">
<circle cx="160" cy="160" r="160" fill="#080904"/>
<g filter="url(#filter0_d_227_141)">
<path d="M111.4 168.456C116.728 168.456 121.384 169.512 125.368 171.624C129.352 173.736 132.424 176.712 134.584 180.552C136.792 184.344 137.896 188.736 137.896 193.728C137.896 198.672 136.792 203.064 134.584 206.904C132.424 210.744 129.328 213.72 125.296 215.832C121.312 217.944 116.68 219 111.4 219H92.464V168.456H111.4ZM110.608 208.344C115.264 208.344 118.888 207.072 121.48 204.528C124.072 201.984 125.368 198.384 125.368 193.728C125.368 189.072 124.072 185.448 121.48 182.856C118.888 180.264 115.264 178.968 110.608 178.968H104.776V208.344H110.608ZM157.089 178.32V188.544H173.577V198.048H157.089V209.136H175.737V219H144.777V168.456H175.737V178.32H157.089ZM231.178 168.456L213.25 219H197.842L179.914 168.456H193.018L205.546 206.616L218.146 168.456H231.178Z" fill="#F0AC2F" shape-rendering="crispEdges"/>
<path d="M125.368 171.624L126.305 169.857V169.857L125.368 171.624ZM134.584 180.552L132.841 181.533L132.848 181.546L132.856 181.558L134.584 180.552ZM134.584 206.904L132.85 205.907L132.845 205.915L132.841 205.923L134.584 206.904ZM125.296 215.832L124.368 214.06L124.359 214.065L125.296 215.832ZM92.464 219H90.464V221H92.464V219ZM92.464 168.456V166.456H90.464V168.456H92.464ZM104.776 178.968V176.968H102.776V178.968H104.776ZM104.776 208.344H102.776V210.344H104.776V208.344ZM111.4 170.456C116.461 170.456 120.784 171.458 124.431 173.391L126.305 169.857C121.984 167.566 116.995 166.456 111.4 166.456V170.456ZM124.431 173.391C128.085 175.328 130.873 178.035 132.841 181.533L136.327 179.571C133.975 175.389 130.619 172.144 126.305 169.857L124.431 173.391ZM132.856 181.558C134.862 185.005 135.896 189.04 135.896 193.728H139.896C139.896 188.432 138.722 183.683 136.312 179.546L132.856 181.558ZM135.896 193.728C135.896 198.364 134.864 202.404 132.85 205.907L136.318 207.901C138.72 203.724 139.896 198.98 139.896 193.728H135.896ZM132.841 205.923C130.877 209.415 128.069 212.121 124.368 214.06L126.224 217.604C130.587 215.319 133.971 212.073 136.327 207.885L132.841 205.923ZM124.359 214.065C120.709 216 116.409 217 111.4 217V221C116.951 221 121.915 219.888 126.233 217.599L124.359 214.065ZM111.4 217H92.464V221H111.4V217ZM94.464 219V168.456H90.464V219H94.464ZM92.464 170.456H111.4V166.456H92.464V170.456ZM110.608 210.344C115.634 210.344 119.818 208.962 122.881 205.955L120.079 203.101C117.958 205.182 114.894 206.344 110.608 206.344V210.344ZM122.881 205.955C125.956 202.937 127.368 198.762 127.368 193.728H123.368C123.368 198.006 122.188 201.031 120.079 203.101L122.881 205.955ZM127.368 193.728C127.368 188.692 125.956 184.503 122.894 181.442L120.066 184.27C122.188 186.393 123.368 189.452 123.368 193.728H127.368ZM122.894 181.442C119.833 178.38 115.644 176.968 110.608 176.968V180.968C114.884 180.968 117.943 182.148 120.066 184.27L122.894 181.442ZM110.608 176.968H104.776V180.968H110.608V176.968ZM102.776 178.968V208.344H106.776V178.968H102.776ZM104.776 210.344H110.608V206.344H104.776V210.344ZM157.089 178.32V176.32H155.089V178.32H157.089ZM157.089 188.544H155.089V190.544H157.089V188.544ZM173.576 188.544H175.576V186.544H173.576V188.544ZM173.576 198.048V200.048H175.576V198.048H173.576ZM157.089 198.048V196.048H155.089V198.048H157.089ZM157.089 209.136H155.089V211.136H157.089V209.136ZM175.737 209.136H177.737V207.136H175.737V209.136ZM175.737 219V221H177.737V219H175.737ZM144.777 219H142.777V221H144.777V219ZM144.777 168.456V166.456H142.777V168.456H144.777ZM175.737 168.456H177.737V166.456H175.737V168.456ZM175.737 178.32V180.32H177.737V178.32H175.737ZM155.089 178.32V188.544H159.089V178.32H155.089ZM157.089 190.544H173.576V186.544H157.089V190.544ZM171.576 188.544V198.048H175.576V188.544H171.576ZM173.576 196.048H157.089V200.048H173.576V196.048ZM155.089 198.048V209.136H159.089V198.048H155.089ZM157.089 211.136H175.737V207.136H157.089V211.136ZM173.737 209.136V219H177.737V209.136H173.737ZM175.737 217H144.777V221H175.737V217ZM146.777 219V168.456H142.777V219H146.777ZM144.777 170.456H175.737V166.456H144.777V170.456ZM173.737 168.456V178.32H177.737V168.456H173.737ZM175.737 176.32H157.089V180.32H175.737V176.32ZM231.178 168.456L233.063 169.125L234.009 166.456H231.178V168.456ZM213.25 219V221H214.662L215.135 219.669L213.25 219ZM197.842 219L195.957 219.669L196.429 221H197.842V219ZM179.914 168.456V166.456H177.082L178.029 169.125L179.914 168.456ZM193.018 168.456L194.918 167.832L194.466 166.456H193.018V168.456ZM205.546 206.616L203.645 207.24L205.54 213.011L207.445 207.243L205.546 206.616ZM218.146 168.456V166.456H216.7L216.246 167.829L218.146 168.456ZM229.293 167.787L211.365 218.331L215.135 219.669L233.063 169.125L229.293 167.787ZM213.25 217H197.842V221H213.25V217ZM199.727 218.331L181.799 167.787L178.029 169.125L195.957 219.669L199.727 218.331ZM179.914 170.456H193.018V166.456H179.914V170.456ZM191.117 169.08L203.645 207.24L207.446 205.992L194.918 167.832L191.117 169.08ZM207.445 207.243L220.045 169.083L216.246 167.829L203.646 205.989L207.445 207.243ZM218.146 170.456H231.178V166.456H218.146V170.456Z" fill="#945824" fill-opacity="0.6"/>
</g>
<g filter="url(#filter1_d_227_141)">
<path d="M25.98 153.08H39.42V161H15.72V118.88H25.98V153.08ZM64.2338 161.42C60.2738 161.42 56.6338 160.5 53.3138 158.66C50.0338 156.82 47.4138 154.26 45.4538 150.98C43.5337 147.66 42.5737 143.94 42.5737 139.82C42.5737 135.7 43.5337 132 45.4538 128.72C47.4138 125.44 50.0338 122.88 53.3138 121.04C56.6338 119.2 60.2738 118.28 64.2338 118.28C68.1938 118.28 71.8138 119.2 75.0938 121.04C78.4138 122.88 81.0138 125.44 82.8938 128.72C84.8138 132 85.7738 135.7 85.7738 139.82C85.7738 143.94 84.8138 147.66 82.8938 150.98C80.9738 154.26 78.3738 156.82 75.0938 158.66C71.8138 160.5 68.1938 161.42 64.2338 161.42ZM64.2338 152.06C67.5938 152.06 70.2738 150.94 72.2737 148.7C74.3138 146.46 75.3338 143.5 75.3338 139.82C75.3338 136.1 74.3138 133.14 72.2737 130.94C70.2738 128.7 67.5938 127.58 64.2338 127.58C60.8338 127.58 58.1138 128.68 56.0738 130.88C54.0738 133.08 53.0738 136.06 53.0738 139.82C53.0738 143.54 54.0738 146.52 56.0738 148.76C58.1138 150.96 60.8338 152.06 64.2338 152.06ZM129.162 161H118.902L101.742 135.02V161H91.4817V118.88H101.742L118.902 144.98V118.88H129.162V161ZM134.859 139.88C134.859 135.72 135.759 132.02 137.559 128.78C139.359 125.5 141.859 122.96 145.059 121.16C148.299 119.32 151.959 118.4 156.039 118.4C161.039 118.4 165.319 119.72 168.879 122.36C172.439 125 174.819 128.6 176.019 133.16H164.739C163.899 131.4 162.699 130.06 161.139 129.14C159.619 128.22 157.879 127.76 155.919 127.76C152.759 127.76 150.199 128.86 148.239 131.06C146.279 133.26 145.299 136.2 145.299 139.88C145.299 143.56 146.279 146.5 148.239 148.7C150.199 150.9 152.759 152 155.919 152C157.879 152 159.619 151.54 161.139 150.62C162.699 149.7 163.899 148.36 164.739 146.6H176.019C174.819 151.16 172.439 154.76 168.879 157.4C165.319 160 161.039 161.3 156.039 161.3C151.959 161.3 148.299 160.4 145.059 158.6C141.859 156.76 139.359 154.22 137.559 150.98C135.759 147.74 134.859 144.04 134.859 139.88ZM218.782 118.88V161H208.522V143.66H192.562V161H182.302V118.88H192.562V135.38H208.522V118.88H218.782ZM246.109 161.42C242.149 161.42 238.509 160.5 235.189 158.66C231.909 156.82 229.289 154.26 227.329 150.98C225.409 147.66 224.449 143.94 224.449 139.82C224.449 135.7 225.409 132 227.329 128.72C229.289 125.44 231.909 122.88 235.189 121.04C238.509 119.2 242.149 118.28 246.109 118.28C250.069 118.28 253.689 119.2 256.969 121.04C260.289 122.88 262.889 125.44 264.769 128.72C266.689 132 267.649 135.7 267.649 139.82C267.649 143.94 266.689 147.66 264.769 150.98C262.849 154.26 260.249 156.82 256.969 158.66C253.689 160.5 250.069 161.42 246.109 161.42ZM246.109 152.06C249.469 152.06 252.149 150.94 254.149 148.7C256.189 146.46 257.209 143.5 257.209 139.82C257.209 136.1 256.189 133.14 254.149 130.94C252.149 128.7 249.469 127.58 246.109 127.58C242.709 127.58 239.989 128.68 237.949 130.88C235.949 133.08 234.949 136.06 234.949 139.82C234.949 143.54 235.949 146.52 237.949 148.76C239.989 150.96 242.709 152.06 246.109 152.06ZM305.457 132.44C305.457 134.88 304.897 137.12 303.777 139.16C302.657 141.16 300.937 142.78 298.617 144.02C296.297 145.26 293.417 145.88 289.977 145.88H283.617V161H273.357V118.88H289.977C293.337 118.88 296.177 119.46 298.497 120.62C300.817 121.78 302.557 123.38 303.717 125.42C304.877 127.46 305.457 129.8 305.457 132.44ZM289.197 137.72C291.157 137.72 292.617 137.26 293.577 136.34C294.537 135.42 295.017 134.12 295.017 132.44C295.017 130.76 294.537 129.46 293.577 128.54C292.617 127.62 291.157 127.16 289.197 127.16H283.617V137.72H289.197Z" fill="#87CC92" shape-rendering="crispEdges"/>
<path d="M25.98 153.08H23.98V155.08H25.98V153.08ZM39.42 153.08H41.42V151.08H39.42V153.08ZM39.42 161V163H41.42V161H39.42ZM15.72 161H13.72V163H15.72V161ZM15.72 118.88V116.88H13.72V118.88H15.72ZM25.98 118.88H27.98V116.88H25.98V118.88ZM25.98 155.08H39.42V151.08H25.98V155.08ZM37.42 153.08V161H41.42V153.08H37.42ZM39.42 159H15.72V163H39.42V159ZM17.72 161V118.88H13.72V161H17.72ZM15.72 120.88H25.98V116.88H15.72V120.88ZM23.98 118.88V153.08H27.98V118.88H23.98ZM53.3138 158.66L52.3352 160.404L52.3443 160.409L53.3138 158.66ZM45.4538 150.98L43.7224 151.981L43.7296 151.994L43.7369 152.006L45.4538 150.98ZM45.4538 128.72L43.7369 127.694L43.7323 127.702L43.7277 127.71L45.4538 128.72ZM53.3138 121.04L52.3442 119.291L52.3352 119.296L53.3138 121.04ZM75.0938 121.04L74.1152 122.784L74.1243 122.789L75.0938 121.04ZM82.8938 128.72L81.1586 129.715L81.1631 129.722L81.1677 129.73L82.8938 128.72ZM82.8938 150.98L84.6198 151.99L84.6251 151.981L82.8938 150.98ZM75.0938 158.66L76.0723 160.404L75.0938 158.66ZM72.2738 148.7L70.7951 147.353L70.7884 147.361L70.7819 147.368L72.2738 148.7ZM72.2738 130.94L70.7819 132.272L70.7944 132.286L70.8072 132.3L72.2738 130.94ZM56.0737 130.88L54.6072 129.52L54.6005 129.527L54.5939 129.535L56.0737 130.88ZM56.0737 148.76L54.5819 150.092L54.5944 150.106L54.6072 150.12L56.0737 148.76ZM64.2338 159.42C60.5977 159.42 57.2935 158.579 54.2832 156.911L52.3443 160.409C55.974 162.421 59.9498 163.42 64.2338 163.42V159.42ZM54.2923 156.916C51.3219 155.249 48.9544 152.939 47.1706 149.954L43.7369 152.006C45.8731 155.581 48.7456 158.391 52.3352 160.404L54.2923 156.916ZM47.1851 149.979C45.4541 146.986 44.5737 143.615 44.5737 139.82H40.5737C40.5737 144.265 41.6134 148.334 43.7224 151.981L47.1851 149.979ZM44.5737 139.82C44.5737 136.024 45.4541 132.678 47.1798 129.73L43.7277 127.71C41.6134 131.322 40.5737 135.376 40.5737 139.82H44.5737ZM47.1706 129.746C48.9544 126.761 51.3219 124.451 54.2923 122.784L52.3352 119.296C48.7456 121.309 45.8731 124.119 43.7369 127.694L47.1706 129.746ZM54.2832 122.789C57.2935 121.121 60.5977 120.28 64.2338 120.28V116.28C59.9498 116.28 55.974 117.279 52.3443 119.291L54.2832 122.789ZM64.2338 120.28C67.8699 120.28 71.1501 121.121 74.1152 122.784L76.0723 119.296C72.4774 117.279 68.5176 116.28 64.2338 116.28V120.28ZM74.1243 122.789C77.1263 124.453 79.4609 126.753 81.1586 129.715L84.6289 127.725C82.5666 124.127 79.7012 121.307 76.0632 119.291L74.1243 122.789ZM81.1677 129.73C82.8934 132.678 83.7738 136.024 83.7738 139.82H87.7738C87.7738 135.376 86.7341 131.322 84.6198 127.71L81.1677 129.73ZM83.7738 139.82C83.7738 143.615 82.8934 146.986 81.1624 149.979L84.6251 151.981C86.7341 148.334 87.7738 144.265 87.7738 139.82H83.7738ZM81.1677 149.97C79.4253 152.946 77.0819 155.252 74.1152 156.916L76.0723 160.404C79.6656 158.388 82.5222 155.574 84.6198 151.99L81.1677 149.97ZM74.1152 156.916C71.1501 158.579 67.8699 159.42 64.2338 159.42V163.42C68.5176 163.42 72.4774 162.421 76.0723 160.404L74.1152 156.916ZM64.2338 154.06C68.088 154.06 71.3387 152.75 73.7656 150.032L70.7819 147.368C69.2088 149.13 67.0995 150.06 64.2338 150.06V154.06ZM73.7524 150.047C76.1965 147.363 77.3338 143.886 77.3338 139.82H73.3338C73.3338 143.114 72.431 145.557 70.7951 147.353L73.7524 150.047ZM77.3338 139.82C77.3338 135.722 76.2006 132.233 73.7403 129.58L70.8072 132.3C72.4269 134.047 73.3338 136.478 73.3338 139.82H77.3338ZM73.7656 129.608C71.3387 126.89 68.088 125.58 64.2338 125.58V129.58C67.0995 129.58 69.2088 130.51 70.7819 132.272L73.7656 129.608ZM64.2338 125.58C60.3589 125.58 57.0779 126.856 54.6072 129.52L57.5403 132.24C59.1496 130.504 61.3086 129.58 64.2338 129.58V125.58ZM54.5939 129.535C52.1775 132.193 51.0737 135.699 51.0737 139.82H55.0737C55.0737 136.421 55.97 133.967 57.5536 132.225L54.5939 129.535ZM51.0737 139.82C51.0737 143.909 52.1815 147.404 54.5819 150.092L57.5656 147.428C55.966 145.636 55.0737 143.171 55.0737 139.82H51.0737ZM54.6072 150.12C57.0779 152.784 60.3589 154.06 64.2338 154.06V150.06C61.3086 150.06 59.1496 149.136 57.5403 147.4L54.6072 150.12ZM129.162 161V163H131.162V161H129.162ZM118.902 161L117.233 162.102L117.826 163H118.902V161ZM101.742 135.02L103.411 133.918L99.7417 128.363V135.02H101.742ZM101.742 161V163H103.742V161H101.742ZM91.4817 161H89.4817V163H91.4817V161ZM91.4817 118.88V116.88H89.4817V118.88H91.4817ZM101.742 118.88L103.413 117.781L102.82 116.88H101.742V118.88ZM118.902 144.98L117.231 146.079L120.902 151.662V144.98H118.902ZM118.902 118.88V116.88H116.902V118.88H118.902ZM129.162 118.88H131.162V116.88H129.162V118.88ZM129.162 159H118.902V163H129.162V159ZM120.571 159.898L103.411 133.918L100.073 136.122L117.233 162.102L120.571 159.898ZM99.7417 135.02V161H103.742V135.02H99.7417ZM101.742 159H91.4817V163H101.742V159ZM93.4817 161V118.88H89.4817V161H93.4817ZM91.4817 120.88H101.742V116.88H91.4817V120.88ZM100.071 119.979L117.231 146.079L120.573 143.881L103.413 117.781L100.071 119.979ZM120.902 144.98V118.88H116.902V144.98H120.902ZM118.902 120.88H129.162V116.88H118.902V120.88ZM127.162 118.88V161H131.162V118.88H127.162ZM137.559 128.78L139.307 129.751L139.312 129.742L137.559 128.78ZM145.059 121.16L146.039 122.903L146.047 122.899L145.059 121.16ZM168.879 122.36L170.07 120.754L168.879 122.36ZM176.019 133.16V135.16H178.613L177.953 132.651L176.019 133.16ZM164.739 133.16L162.934 134.021L163.477 135.16H164.739V133.16ZM161.139 129.14L160.103 130.851L160.113 130.857L160.123 130.863L161.139 129.14ZM148.239 131.06L149.732 132.39L148.239 131.06ZM161.139 150.62L160.123 148.897L160.113 148.903L160.103 148.909L161.139 150.62ZM164.739 146.6V144.6H163.477L162.934 145.739L164.739 146.6ZM176.019 146.6L177.953 147.109L178.613 144.6H176.019V146.6ZM168.879 157.4L170.058 159.015L170.064 159.011L170.07 159.006L168.879 157.4ZM145.059 158.6L144.062 160.334L144.075 160.341L144.088 160.348L145.059 158.6ZM137.559 150.98L139.307 150.009L137.559 150.98ZM136.859 139.88C136.859 136.018 137.692 132.659 139.307 129.751L135.811 127.809C133.826 131.381 132.859 135.422 132.859 139.88H136.859ZM139.312 129.742C140.936 126.783 143.171 124.516 146.039 122.903L144.078 119.417C140.546 121.404 137.782 124.217 135.806 127.818L139.312 129.742ZM146.047 122.899C148.957 121.246 152.271 120.4 156.039 120.4V116.4C151.646 116.4 147.64 117.394 144.071 119.421L146.047 122.899ZM156.039 120.4C160.667 120.4 164.516 121.614 167.688 123.966L170.07 120.754C166.122 117.826 161.41 116.4 156.039 116.4V120.4ZM167.688 123.966C170.858 126.318 172.993 129.518 174.085 133.669L177.953 132.651C176.645 127.682 174.02 123.682 170.07 120.754L167.688 123.966ZM176.019 131.16H164.739V135.16H176.019V131.16ZM166.544 132.299C165.546 130.208 164.084 128.555 162.155 127.417L160.123 130.863C161.313 131.565 162.252 132.592 162.934 134.021L166.544 132.299ZM162.175 127.429C160.311 126.301 158.205 125.76 155.919 125.76V129.76C157.553 129.76 158.927 130.139 160.103 130.851L162.175 127.429ZM155.919 125.76C152.235 125.76 149.115 127.07 146.746 129.73L149.732 132.39C151.283 130.65 153.283 129.76 155.919 129.76V125.76ZM146.746 129.73C144.384 132.381 143.299 135.836 143.299 139.88H147.299C147.299 136.564 148.174 134.139 149.732 132.39L146.746 129.73ZM143.299 139.88C143.299 143.924 144.384 147.379 146.746 150.03L149.732 147.37C148.174 145.621 147.299 143.196 147.299 139.88H143.299ZM146.746 150.03C149.115 152.69 152.235 154 155.919 154V150C153.283 150 151.283 149.11 149.732 147.37L146.746 150.03ZM155.919 154C158.205 154 160.311 153.459 162.175 152.331L160.103 148.909C158.927 149.621 157.553 150 155.919 150V154ZM162.155 152.343C164.084 151.205 165.546 149.552 166.544 147.461L162.934 145.739C162.252 147.168 161.313 148.195 160.123 148.897L162.155 152.343ZM164.739 148.6H176.019V144.6H164.739V148.6ZM174.085 146.091C172.993 150.242 170.858 153.442 167.688 155.794L170.07 159.006C174.02 156.078 176.645 152.078 177.953 147.109L174.085 146.091ZM167.699 155.785C164.527 158.102 160.674 159.3 156.039 159.3V163.3C161.404 163.3 166.111 161.898 170.058 159.015L167.699 155.785ZM156.039 159.3C152.264 159.3 148.944 158.47 146.03 156.852L144.088 160.348C147.654 162.33 151.654 163.3 156.039 163.3V159.3ZM146.056 156.866C143.172 155.208 140.931 152.932 139.307 150.009L135.811 151.951C137.786 155.508 140.546 158.312 144.062 160.334L146.056 156.866ZM139.307 150.009C137.692 147.101 136.859 143.742 136.859 139.88H132.859C132.859 144.338 133.826 148.379 135.811 151.951L139.307 150.009ZM218.782 118.88H220.782V116.88H218.782V118.88ZM218.782 161V163H220.782V161H218.782ZM208.522 161H206.522V163H208.522V161ZM208.522 143.66H210.522V141.66H208.522V143.66ZM192.562 143.66V141.66H190.562V143.66H192.562ZM192.562 161V163H194.562V161H192.562ZM182.302 161H180.302V163H182.302V161ZM182.302 118.88V116.88H180.302V118.88H182.302ZM192.562 118.88H194.562V116.88H192.562V118.88ZM192.562 135.38H190.562V137.38H192.562V135.38ZM208.522 135.38V137.38H210.522V135.38H208.522ZM208.522 118.88V116.88H206.522V118.88H208.522ZM216.782 118.88V161H220.782V118.88H216.782ZM218.782 159H208.522V163H218.782V159ZM210.522 161V143.66H206.522V161H210.522ZM208.522 141.66H192.562V145.66H208.522V141.66ZM190.562 143.66V161H194.562V143.66H190.562ZM192.562 159H182.302V163H192.562V159ZM184.302 161V118.88H180.302V161H184.302ZM182.302 120.88H192.562V116.88H182.302V120.88ZM190.562 118.88V135.38H194.562V118.88H190.562ZM192.562 137.38H208.522V133.38H192.562V137.38ZM210.522 135.38V118.88H206.522V135.38H210.522ZM208.522 120.88H218.782V116.88H208.522V120.88ZM235.189 158.66L234.21 160.404L234.219 160.409L235.189 158.66ZM227.329 150.98L225.597 151.981L225.605 151.994L225.612 152.006L227.329 150.98ZM227.329 128.72L225.612 127.694L225.607 127.702L225.603 127.71L227.329 128.72ZM235.189 121.04L234.219 119.291L234.21 119.296L235.189 121.04ZM256.969 121.04L255.99 122.784L255.999 122.789L256.969 121.04ZM264.769 128.72L263.034 129.715L263.038 129.722L263.043 129.73L264.769 128.72ZM264.769 150.98L266.495 151.99L266.5 151.981L264.769 150.98ZM256.969 158.66L257.947 160.404L256.969 158.66ZM254.149 148.7L252.67 147.353L252.663 147.361L252.657 147.368L254.149 148.7ZM254.149 130.94L252.657 132.272L252.669 132.286L252.682 132.3L254.149 130.94ZM237.949 130.88L236.482 129.52L236.476 129.527L236.469 129.535L237.949 130.88ZM237.949 148.76L236.457 150.092L236.469 150.106L236.482 150.12L237.949 148.76ZM246.109 159.42C242.473 159.42 239.169 158.579 236.158 156.911L234.219 160.409C237.849 162.421 241.825 163.42 246.109 163.42V159.42ZM236.167 156.916C233.197 155.249 230.829 152.939 229.046 149.954L225.612 152.006C227.748 155.581 230.621 158.391 234.21 160.404L236.167 156.916ZM229.06 149.979C227.329 146.986 226.449 143.615 226.449 139.82H222.449C222.449 144.265 223.488 148.334 225.597 151.981L229.06 149.979ZM226.449 139.82C226.449 136.024 227.329 132.678 229.055 129.73L225.603 127.71C223.488 131.322 222.449 135.376 222.449 139.82H226.449ZM229.046 129.746C230.829 126.761 233.197 124.451 236.167 122.784L234.21 119.296C230.621 121.309 227.748 124.119 225.612 127.694L229.046 129.746ZM236.158 122.789C239.169 121.121 242.473 120.28 246.109 120.28V116.28C241.825 116.28 237.849 117.279 234.219 119.291L236.158 122.789ZM246.109 120.28C249.745 120.28 253.025 121.121 255.99 122.784L257.947 119.296C254.352 117.279 250.393 116.28 246.109 116.28V120.28ZM255.999 122.789C259.001 124.453 261.336 126.753 263.034 129.715L266.504 127.725C264.442 124.127 261.576 121.307 257.938 119.291L255.999 122.789ZM263.043 129.73C264.768 132.678 265.649 136.024 265.649 139.82H269.649C269.649 135.376 268.609 131.322 266.495 127.71L263.043 129.73ZM265.649 139.82C265.649 143.615 264.768 146.986 263.037 149.979L266.5 151.981C268.609 148.334 269.649 144.265 269.649 139.82H265.649ZM263.043 149.97C261.3 152.946 258.957 155.252 255.99 156.916L257.947 160.404C261.541 158.388 264.397 155.574 266.495 151.99L263.043 149.97ZM255.99 156.916C253.025 158.579 249.745 159.42 246.109 159.42V163.42C250.393 163.42 254.352 162.421 257.947 160.404L255.99 156.916ZM246.109 154.06C249.963 154.06 253.214 152.75 255.641 150.032L252.657 147.368C251.084 149.13 248.974 150.06 246.109 150.06V154.06ZM255.627 150.047C258.072 147.363 259.209 143.886 259.209 139.82H255.209C255.209 143.114 254.306 145.557 252.67 147.353L255.627 150.047ZM259.209 139.82C259.209 135.722 258.076 132.233 255.615 129.58L252.682 132.3C254.302 134.047 255.209 136.478 255.209 139.82H259.209ZM255.641 129.608C253.214 126.89 249.963 125.58 246.109 125.58V129.58C248.974 129.58 251.084 130.51 252.657 132.272L255.641 129.608ZM246.109 125.58C242.234 125.58 238.953 126.856 236.482 129.52L239.415 132.24C241.025 130.504 243.184 129.58 246.109 129.58V125.58ZM236.469 129.535C234.052 132.193 232.949 135.699 232.949 139.82H236.949C236.949 136.421 237.845 133.967 239.429 132.225L236.469 129.535ZM232.949 139.82C232.949 143.909 234.056 147.404 236.457 150.092L239.441 147.428C237.841 145.636 236.949 143.171 236.949 139.82H232.949ZM236.482 150.12C238.953 152.784 242.234 154.06 246.109 154.06V150.06C243.184 150.06 241.025 149.136 239.415 147.4L236.482 150.12ZM303.777 139.16L305.522 140.137L305.526 140.13L305.53 140.123L303.777 139.16ZM298.617 144.02L297.674 142.256L298.617 144.02ZM283.617 145.88V143.88H281.617V145.88H283.617ZM283.617 161V163H285.617V161H283.617ZM273.357 161H271.357V163H273.357V161ZM273.357 118.88V116.88H271.357V118.88H273.357ZM298.497 120.62L299.391 118.831L298.497 120.62ZM293.577 128.54L292.193 129.984L293.577 128.54ZM283.617 127.16V125.16H281.617V127.16H283.617ZM283.617 137.72H281.617V139.72H283.617V137.72ZM303.457 132.44C303.457 134.56 302.974 136.467 302.024 138.197L305.53 140.123C306.82 137.773 307.457 135.2 307.457 132.44H303.457ZM302.032 138.183C301.125 139.802 299.708 141.169 297.674 142.256L299.559 145.784C302.166 144.391 304.189 142.518 305.522 140.137L302.032 138.183ZM297.674 142.256C295.72 143.301 293.186 143.88 289.977 143.88V147.88C293.648 147.88 296.874 147.219 299.559 145.784L297.674 142.256ZM289.977 143.88H283.617V147.88H289.977V143.88ZM281.617 145.88V161H285.617V145.88H281.617ZM283.617 159H273.357V163H283.617V159ZM275.357 161V118.88H271.357V161H275.357ZM273.357 120.88H289.977V116.88H273.357V120.88ZM289.977 120.88C293.115 120.88 295.63 121.423 297.602 122.409L299.391 118.831C296.724 117.497 293.559 116.88 289.977 116.88V120.88ZM297.602 122.409C299.607 123.411 301.034 124.749 301.978 126.409L305.455 124.431C304.079 122.011 302.027 120.149 299.391 118.831L297.602 122.409ZM301.978 126.409C302.946 128.111 303.457 130.102 303.457 132.44H307.457C307.457 129.498 306.807 126.809 305.455 124.431L301.978 126.409ZM289.197 139.72C291.431 139.72 293.484 139.199 294.961 137.784L292.193 134.896C291.749 135.321 290.883 135.72 289.197 135.72V139.72ZM294.961 137.784C296.412 136.393 297.017 134.513 297.017 132.44H293.017C293.017 133.727 292.661 134.447 292.193 134.896L294.961 137.784ZM297.017 132.44C297.017 130.367 296.412 128.487 294.961 127.096L292.193 129.984C292.661 130.433 293.017 131.153 293.017 132.44H297.017ZM294.961 127.096C293.484 125.681 291.431 125.16 289.197 125.16V129.16C290.883 129.16 291.749 129.559 292.193 129.984L294.961 127.096ZM289.197 125.16H283.617V129.16H289.197V125.16ZM281.617 127.16V137.72H285.617V127.16H281.617ZM283.617 139.72H289.197V135.72H283.617V139.72Z" fill="#4A7C52" fill-opacity="0.6"/>
</g>
<defs>
<filter id="filter0_d_227_141" x="92.464" y="168.456" width="138.714" height="50.5439" filterUnits="userSpaceOnUse" color-interpolation-filters="sRGB">
<feFlood flood-opacity="0" result="BackgroundImageFix"/>
<feColorMatrix in="SourceAlpha" type="matrix" values="0 0 0 0 0 0 0 0 0 0 0 0 0 0 0 0 0 0 127 0" result="hardAlpha"/>
<feOffset/>
<feComposite in2="hardAlpha" operator="out"/>
<feColorMatrix type="matrix" values="0 0 0 0 0.941176 0 0 0 0 0.67451 0 0 0 0 0.184314 0 0 0 1 0"/>
<feBlend mode="normal" in2="BackgroundImageFix" result="effect1_dropShadow_227_141"/>
<feBlend mode="normal" in="SourceGraphic" in2="effect1_dropShadow_227_141" result="shape"/>
</filter>
<filter id="filter1_d_227_141" x="15.72" y="118.28" width="289.737" height="43.1401" filterUnits="userSpaceOnUse" color-interpolation-filters="sRGB">
<feFlood flood-opacity="0" result="BackgroundImageFix"/>
<feColorMatrix in="SourceAlpha" type="matrix" values="0 0 0 0 0 0 0 0 0 0 0 0 0 0 0 0 0 0 127 0" result="hardAlpha"/>
<feOffset/>
<feComposite in2="hardAlpha" operator="out"/>
<feColorMatrix type="matrix" values="0 0 0 0 0.572549 0 0 0 0 0.627451 0 0 0 0 0.482353 0 0 0 1 0"/>
<feBlend mode="normal" in2="BackgroundImageFix" result="effect1_dropShadow_227_141"/>
<feBlend mode="normal" in="SourceGraphic" in2="effect1_dropShadow_227_141" result="shape"/>
</filter>
</defs>
</svg>
