<svg width="60" height="60" viewBox="0 0 60 60" fill="none" xmlns="http://www.w3.org/2000/svg">
<path d="M41.5077 33.6008L31.6377 20.3573C31.4378 20.089 31.1874 19.8731 30.9044 19.725C30.6214 19.5768 30.3126 19.5 30 19.5C29.6874 19.5 29.3786 19.5768 29.0956 19.725C28.8126 19.8731 28.5622 20.089 28.3623 20.3573L18.4923 33.6008C18.2337 33.9481 18.0689 34.3705 18.0174 34.8185C17.9658 35.2665 18.0296 35.7217 18.2013 36.1307C18.3729 36.5397 18.6453 36.8857 18.9867 37.1282C19.328 37.3707 19.7241 37.4997 20.1287 37.5H39.8713C40.2759 37.4997 40.672 37.3707 41.0133 37.1282C41.3547 36.8857 41.6271 36.5397 41.7987 36.1307C41.9704 35.7217 42.0342 35.2665 41.9826 34.8185C41.9311 34.3705 41.7663 33.9481 41.5077 33.6008Z" fill="#F9FAFC"/>
<path d="M52.5 30C52.5 17.5781 42.4219 7.5 30 7.5C17.5781 7.5 7.5 17.5781 7.5 30C7.5 42.4219 17.5781 52.5 30 52.5C42.4219 52.5 52.5 42.4219 52.5 30Z" stroke="#F9FAFC" stroke-width="4" stroke-miterlimit="10"/>
</svg>
