<svg width="80" height="80" viewBox="0 0 80 80" fill="none" xmlns="http://www.w3.org/2000/svg">
<path d="M55.3436 44.8011L42.1836 27.1431C41.917 26.7854 41.5832 26.4975 41.2058 26.3C40.8285 26.1024 40.4168 26 40 26C39.5832 26 39.1715 26.1024 38.7942 26.3C38.4168 26.4975 38.083 26.7854 37.8164 27.1431L24.6564 44.8011C24.3115 45.2642 24.0919 45.8273 24.0232 46.4247C23.9544 47.022 24.0395 47.6289 24.2683 48.1743C24.4972 48.7196 24.8604 49.1809 25.3155 49.5043C25.7706 49.8276 26.2988 49.9995 26.8382 50H53.1618C53.7012 49.9995 54.2294 49.8276 54.6845 49.5043C55.1396 49.1809 55.5028 48.7196 55.7317 48.1743C55.9605 47.6289 56.0456 47.022 55.9768 46.4247C55.9081 45.8273 55.6885 45.2642 55.3436 44.8011Z" fill="#F9FAFC"/>
<path d="M70 40C70 23.4375 56.5625 10 40 10C23.4375 10 10 23.4375 10 40C10 56.5625 23.4375 70 40 70C56.5625 70 70 56.5625 70 40Z" stroke="#F9FAFC" stroke-width="4" stroke-miterlimit="10"/>
</svg>
